<svg id="svg" version="1.1" xmlns="http://www.w3.org/2000/svg" style="display: block;" viewBox="0 0 96 96"><path d="M0 0 C31.68 0 63.36 0 96 0 C96 31.68 96 63.36 96 96 C64.32 96 32.64 96 0 96 C0 64.32 0 32.64 0 0 Z " transform="translate(0,0)" style="fill: #000000;"/><path d="M0 0 C3.50778747 1.75906746 6.69786374 3.77774249 9.9609375 5.953125 C15.4059375 2.983125 15.4059375 2.983125 20.9609375 -0.046875 C21.9609375 0.953125 21.9609375 0.953125 22.2734375 4.765625 C22.23925421 7.94467101 22.11955156 8.73981644 20.1484375 11.390625 C17.9609375 12.953125 17.9609375 12.953125 14.9609375 13.953125 C15.4353125 15.005 15.9096875 16.056875 16.3984375 17.140625 C19.22727274 23.41325967 18.94193779 29.12602614 18.60546875 35.89453125 C19.04854378 39.70692408 20.27821647 40.34034456 22.9609375 42.953125 C25.30873285 50.39949083 27.54568245 60.18476741 25.9609375 67.953125 C23.62437461 70.92264729 21.66784262 71.45219188 17.9609375 71.953125 C17.9609375 72.943125 17.9609375 73.933125 17.9609375 74.953125 C-0.8490625 74.953125 -19.6590625 74.953125 -39.0390625 74.953125 C-39.3690625 73.963125 -39.6990625 72.973125 -40.0390625 71.953125 C-42.50232962 70.3084576 -42.50232962 70.3084576 -45.0390625 68.953125 C-46.58692249 67.40526501 -46.24629599 65.98783372 -46.2890625 63.828125 C-46.21100854 56.11193307 -45.6746896 44.71913936 -40.0390625 38.953125 C-39.3790625 38.953125 -38.7190625 38.953125 -38.0390625 38.953125 C-38.2040625 38.458125 -38.3690625 37.963125 -38.5390625 37.453125 C-40.13439622 29.47645641 -38.87294755 21.10541476 -35.0390625 13.953125 C-36.0084375 13.499375 -36.9778125 13.045625 -37.9765625 12.578125 C-41.0390625 10.953125 -41.0390625 10.953125 -42.0390625 8.953125 C-42.17321722 6.2807629 -42.08224791 3.63062012 -42.0390625 0.953125 C-37.17943071 1.56057897 -33.2985107 3.68071467 -29.0390625 5.953125 C-28.42417969 5.53160156 -27.80929688 5.11007813 -27.17578125 4.67578125 C-26.36753906 4.12792969 -25.55929688 3.58007812 -24.7265625 3.015625 C-23.92605469 2.47035156 -23.12554687 1.92507812 -22.30078125 1.36328125 C-15.99604111 -2.56765345 -6.86929785 -2.36628769 0 0 Z " transform="translate(58.0390625,13.046875)" style="fill: #6C19FE;"/><path d="M0 0 C0.66 0.33 1.32 0.66 2 1 C2.48945148 8.34177215 2.48945148 8.34177215 0.1875 11.4375 C-2 13 -2 13 -5 14 C-4.525625 15.051875 -4.05125 16.10375 -3.5625 17.1875 C-0.61429505 24.1547202 0.096196 31.663314 -2 39 C-5.19292186 37.53809273 -7.80566134 35.73158625 -10.5625 33.5625 C-11.32691406 32.96566406 -12.09132813 32.36882813 -12.87890625 31.75390625 C-16.54621223 28.72145618 -18.61591858 26.88061065 -19.2734375 21.94921875 C-19.45905571 17.8156439 -19.30453168 15.52505462 -17.1875 11.875 C-13.16680726 7.72685014 -7.9140184 4.95145378 -3 2 C-2.01 1.34 -1.02 0.68 0 0 Z " transform="translate(78,13)" style="fill: #A448FE;"/><path d="M0 0 C7.24239658 1.01026184 14.11511771 5.68634534 19.1875 10.875 C21.61312164 15.05710628 21.78112776 18.27812657 21 23 C18.14068396 30.23238763 10.5788192 34.50919797 4 38 C1.55586306 30.66758917 2.80742091 21.64122582 6.0703125 14.734375 C6.53050781 13.87585938 6.53050781 13.87585938 7 13 C6.030625 12.54625 5.06125 12.0925 4.0625 11.625 C1 10 1 10 0 8 C-0.13415472 5.3276379 -0.04318541 2.67749512 0 0 Z " transform="translate(16,14)" style="fill: #A549FE;"/><path d="M0 0 C18.48 0 36.96 0 56 0 C56 1.32 56 2.64 56 4 C37.52 4 19.04 4 0 4 C0 2.68 0 1.36 0 0 Z " transform="translate(20,80)" style="fill: #2100C4;"/><path d="M0 0 C1.14926266 0.95421808 2.29430541 1.91352045 3.4375 2.875 C4.39462891 3.67550781 4.39462891 3.67550781 5.37109375 4.4921875 C7 6 7 6 8 8 C5.125 8.125 5.125 8.125 2 8 C0 6 0 6 -0.125 2.875 C-0.08375 1.92625 -0.0425 0.9775 0 0 Z " transform="translate(32,62)" style="fill: #2C03CC;"/><path d="M0 0 C0.66 0 1.32 0 2 0 C2.125 2.375 2.125 2.375 2 5 C0 7 0 7 -3.125 7.125 C-4.548125 7.063125 -4.548125 7.063125 -6 7 C-5.04882866 5.8274869 -4.08882991 4.66212985 -3.125 3.5 C-2.59132812 2.8503125 -2.05765625 2.200625 -1.5078125 1.53125 C-0.76144531 0.77328125 -0.76144531 0.77328125 0 0 Z " transform="translate(62,63)" style="fill: #2B03CC;"/><path d="M0 0 C1.65 0.33 3.3 0.66 5 1 C4.67 2.65 4.34 4.3 4 6 C2.35 5.67 0.7 5.34 -1 5 C-0.67 3.35 -0.34 1.7 0 0 Z " transform="translate(63,28)" style="fill: #330ACC;"/><path d="M0 0 C1.65 0.33 3.3 0.66 5 1 C4.67 2.65 4.34 4.3 4 6 C2.35 5.67 0.7 5.34 -1 5 C-0.67 3.35 -0.34 1.7 0 0 Z " transform="translate(29,28)" style="fill: #330ACC;"/></svg>